<?xml version="1.0" encoding="UTF-8" standalone="no"?>
<svg
   xmlns:dc="http://purl.org/dc/elements/1.1/"
   xmlns:cc="http://creativecommons.org/ns#"
   xmlns:rdf="http://www.w3.org/1999/02/22-rdf-syntax-ns#"
   xmlns:svg="http://www.w3.org/2000/svg"
   xmlns="http://www.w3.org/2000/svg"
   xmlns:sodipodi="http://sodipodi.sourceforge.net/DTD/sodipodi-0.dtd"
   xmlns:inkscape="http://www.inkscape.org/namespaces/inkscape"
   sodipodi:docname="icon.svg"
   inkscape:version="1.0 (4035a4fb49, 2020-05-01)"
   id="svg8"
   version="1.1"
   viewBox="0 0 512 512"
   height="512"
   width="512">
  <defs
     id="defs2">
    <clipPath
       id="clipPath888"
       clipPathUnits="userSpaceOnUse">
      <g
         id="use890"
         inkscape:label="Clip">
        <path
           style="fill:#b2b2b2;fill-opacity:1;stroke:none;stroke-width:1px;stroke-linecap:butt;stroke-linejoin:miter;stroke-opacity:1"
           d="m 256,128 c 0,0 -64,-48 -128,0 -48,64 0,128 0,128 l 128,128 c 0,0 64,64 128,0 64,-64 0,-128 0,-128 z"
           id="path1080"
           sodipodi:nodetypes="ccccccc" />
        <path
           sodipodi:nodetypes="ccccc"
           id="path1082"
           d="m 128,128 -64,64 112,112 64,-64 z"
           style="fill:#e5e5e5;fill-opacity:1;stroke:none;stroke-width:1px;stroke-linecap:butt;stroke-linejoin:miter;stroke-opacity:1" />
        <path
           style="fill:#e5e5e5;fill-opacity:1;stroke:none;stroke-width:1px;stroke-linecap:butt;stroke-linejoin:miter;stroke-opacity:1"
           d="m 256,128 c 0,0 -64,-48 -128,0 l 112,112 64,-64 z"
           id="path1084"
           sodipodi:nodetypes="ccccc" />
        <path
           style="fill:none;stroke:#000000;stroke-width:16;stroke-linecap:butt;stroke-linejoin:miter;stroke-miterlimit:4;stroke-dasharray:none;stroke-opacity:1"
           d="M 176,304 304,176"
           id="path1086" />
        <path
           style="fill:none;stroke:#000000;stroke-width:16;stroke-linecap:butt;stroke-linejoin:miter;stroke-miterlimit:4;stroke-dasharray:none;stroke-opacity:1"
           d="M 240,240 128,128"
           id="path1088" />
      </g>
    </clipPath>
    <clipPath
       id="clipPath1126"
       clipPathUnits="userSpaceOnUse">
      <path
         style="fill:#b2b100;fill-opacity:1;stroke:none;stroke-width:1px;stroke-linecap:butt;stroke-linejoin:miter;stroke-opacity:1"
         d="m 256,128 c 0,0 -64,-48 -128,0 -48,64 0,128 0,128 l 128,128 c 0,0 64,64 128,0 64,-64 0,-128 0,-128 z"
         id="path1128"
         sodipodi:nodetypes="ccccccc" />
    </clipPath>
    <clipPath
       id="clipPath1130"
       clipPathUnits="userSpaceOnUse">
      <path
         style="fill:#b2b100;fill-opacity:1;stroke:none;stroke-width:1px;stroke-linecap:butt;stroke-linejoin:miter;stroke-opacity:1"
         d="m 256,128 c 0,0 -64,-48 -128,0 -48,64 0,128 0,128 l 128,128 c 0,0 64,64 128,0 64,-64 0,-128 0,-128 z"
         id="path1132"
         sodipodi:nodetypes="ccccccc" />
    </clipPath>
    <clipPath
       id="clipPath1134"
       clipPathUnits="userSpaceOnUse">
      <path
         style="fill:#b2b100;fill-opacity:1;stroke:none;stroke-width:1px;stroke-linecap:butt;stroke-linejoin:miter;stroke-opacity:1"
         d="m 256,128 c 0,0 -64,-48 -128,0 -48,64 0,128 0,128 l 128,128 c 0,0 64,64 128,0 64,-64 0,-128 0,-128 z"
         id="path1136"
         sodipodi:nodetypes="ccccccc" />
    </clipPath>
    <clipPath
       id="clipPath1138"
       clipPathUnits="userSpaceOnUse">
      <path
         style="fill:#b2b100;fill-opacity:1;stroke:none;stroke-width:1px;stroke-linecap:butt;stroke-linejoin:miter;stroke-opacity:1"
         d="m 256,128 c 0,0 -64,-48 -128,0 -48,64 0,128 0,128 l 128,128 c 0,0 64,64 128,0 64,-64 0,-128 0,-128 z"
         id="path1140"
         sodipodi:nodetypes="ccccccc" />
    </clipPath>
    <clipPath
       id="clipPath1142"
       clipPathUnits="userSpaceOnUse">
      <path
         style="fill:#b2b100;fill-opacity:1;stroke:none;stroke-width:1px;stroke-linecap:butt;stroke-linejoin:miter;stroke-opacity:1"
         d="m 256,128 c 0,0 -64,-48 -128,0 -48,64 0,128 0,128 l 128,128 c 0,0 64,64 128,0 64,-64 0,-128 0,-128 z"
         id="path1144"
         sodipodi:nodetypes="ccccccc" />
    </clipPath>
  </defs>
  <sodipodi:namedview
     inkscape:snap-grids="true"
     units="px"
     inkscape:window-maximized="1"
     inkscape:window-y="-8"
     inkscape:window-x="-8"
     inkscape:window-height="1027"
     inkscape:window-width="1680"
     showgrid="true"
     inkscape:document-rotation="0"
     inkscape:current-layer="layer1"
     inkscape:document-units="px"
     inkscape:cy="238.76163"
     inkscape:cx="235.14735"
     inkscape:zoom="1"
     inkscape:pageshadow="2"
     inkscape:pageopacity="0.0"
     borderopacity="1.0"
     bordercolor="#666666"
     pagecolor="#ffffff"
     id="base">
    <inkscape:grid
       empspacing="4"
       spacingy="8"
       spacingx="8"
       id="grid833"
       type="xygrid" />
  </sodipodi:namedview>
  <metadata
     id="metadata5">
    <rdf:RDF>
      <cc:Work
         rdf:about="">
        <dc:format>image/svg+xml</dc:format>
        <dc:type
           rdf:resource="http://purl.org/dc/dcmitype/StillImage" />
        <dc:title></dc:title>
      </cc:Work>
    </rdf:RDF>
  </metadata>
  <g
     id="layer1"
     inkscape:groupmode="layer"
     inkscape:label="Layer 1">
    <path
       sodipodi:nodetypes="cc"
       id="path1146"
       d="M 128,128 C 96,96 128,64 128,64"
       style="fill:none;stroke:#b2b2b2;stroke-width:8;stroke-linecap:butt;stroke-linejoin:miter;stroke-miterlimit:4;stroke-dasharray:none;stroke-opacity:1" />
    <path
       clip-path="url(#clipPath1142)"
       id="path1124"
       d="M 32,192 320,480 480,320 192,32 Z"
       style="fill:#b2b2b2;stroke:none;stroke-width:1px;stroke-linecap:butt;stroke-linejoin:miter;stroke-opacity:1;fill-opacity:1" />
    <path
       clip-path="url(#clipPath1138)"
       sodipodi:nodetypes="ccccc"
       id="path843-3"
       d="m 112,112 -80,80 128,128 80,-80 z"
       style="fill:#e5e5e5;fill-opacity:1;stroke:none;stroke-width:1px;stroke-linecap:butt;stroke-linejoin:miter;stroke-opacity:1" />
    <path
       clip-path="url(#clipPath1134)"
       style="fill:#e5e5e5;fill-opacity:1;stroke:none;stroke-width:1px;stroke-linecap:butt;stroke-linejoin:miter;stroke-opacity:1"
       d="m 192,32 -80,80 128,128 80,-80 z"
       id="path843-3-7"
       sodipodi:nodetypes="ccccc" />
    <path
       clip-path="url(#clipPath1130)"
       sodipodi:nodetypes="cc"
       style="fill:none;stroke:#000000;stroke-width:16;stroke-linecap:butt;stroke-linejoin:miter;stroke-miterlimit:4;stroke-dasharray:none;stroke-opacity:1"
       d="M 160,320 320,160"
       id="path875" />
    <path
       clip-path="url(#clipPath1126)"
       sodipodi:nodetypes="cc"
       style="fill:none;stroke:#000000;stroke-width:16;stroke-linecap:butt;stroke-linejoin:miter;stroke-miterlimit:4;stroke-dasharray:none;stroke-opacity:1"
       d="M 240,240 112,112"
       id="path877" />
    <path
       sodipodi:nodetypes="cc"
       id="path841"
       d="M 96,416 416,96"
       style="fill:none;stroke:#ff0000;stroke-width:32;stroke-linecap:butt;stroke-linejoin:miter;stroke-miterlimit:4;stroke-dasharray:none;stroke-opacity:1" />
    <circle
       r="224"
       cy="256"
       cx="256"
       id="path839"
       style="fill:none;stroke-width:32;stroke-miterlimit:4;stroke-dasharray:none;stroke:#ff0000;stroke-opacity:1" />
  </g>
</svg>
